# xmcd
#
# Track frame offsets:
#	150
#	8030
#	23147
#	30695
#	37147
#	44075
#	47897
#	57667
#	62617
#	72335
#	81107
#	86937
#	93187
#	104620
#	113057
#	126215
#	132850
#	140247
#
# Disc length: 1986 seconds
#
# Revision: 0
# Processed by: cddbd v1.4PL0 Copyright (c) Steve Scherf et al.
# Submitted via: EasyCDDAExtractor 4.6.9.1
#
DISCID=0b07c012
DTITLE=Gene Autry - The Singing Cowboy
DYEAR=1900
DGENRE=Country
TTITLE0=When It's Springtime In The Rockies
TTITLE1=At The Old Barn Dance - Then And Now
TTITLE2=Man From Music Mountain
TTITLE3=Mexicali Rose
TTITLE4='Neath The Blue Montana Sky
TTITLE5=It Happened In Monterey
TTITLE6=South Of The Border (Down Mexico Way)
TTITLE7=Rancho Grande
TTITLE8=Keep Rollin' Lazy Longhorns
TTITLE9=Carolina Moon
TTITLE10=Ridin' On A Rainbow
TTITLE11=Sierra Sue
TTITLE12=The Cowboy Serenade
TTITLE13=Twilight On The Rio Grande
TTITLE14=The Last Roundup
TTITLE15=Mule Train
TTITLE16=Whirlwind
TTITLE17=Blue Canadian Rockies
EXTD=
EXTT0=
EXTT1=
EXTT2=
EXTT3=
EXTT4=
EXTT5=
EXTT6=
EXTT7=
EXTT8=
EXTT9=
EXTT10=
EXTT11=
EXTT12=
EXTT13=
EXTT14=
EXTT15=
EXTT16=
EXTT17=
PLAYORDER=
